<svg version="1.1" xmlns="http://www.w3.org/2000/svg" viewBox="0 0 1181.8334321521581 985.4975968739125" width="1181.8334321521581" height="985.4975968739125">
  <!-- svg-source:excalidraw -->
  
  <defs>
    <style>
      @font-face {
        font-family: "Virgil";
        src: url("https://excalidraw.com/Virgil.woff2");
      }
      @font-face {
        font-family: "Cascadia";
        src: url("https://excalidraw.com/Cascadia.woff2");
      }
    </style>
  </defs>
  <rect x="0" y="0" width="1181.8334321521581" height="985.4975968739125" fill="#ffffff"></rect><g stroke-linecap="round" transform="translate(37.8571632021949 306.905227297829) rotate(0 122.66670735677081 35.46666208902991)"><path d="M0 0 C0 0, 0 0, 0 0 M0 0 C0 0, 0 0, 0 0 M-0.76 6.08 C1.66 3.58, 3.94 1.31, 5.36 -0.12 M-0.27 6.55 C1.09 4.21, 3.32 2.93, 4.72 0.42 M1.45 11.83 C2.05 9.66, 5.95 3.89, 9.13 -1.01 M-0.43 11.62 C3.08 7.87, 6.77 4.22, 10.98 -0.61 M-0.76 17.13 C2.34 16.11, 9.06 10.41, 16.72 -0.97 M0.17 18.51 C3.4 14.54, 6.43 9.59, 16.26 -0.24 M0.1 25.24 C6.05 15.09, 15.22 10.14, 20.78 1.28 M1.26 24.49 C5.6 19.01, 8.72 13.89, 20.35 -0.25 M0.8 32.02 C9.45 20.42, 15.67 11.59, 25.72 1.47 M-0.92 29.7 C7.81 22.23, 13.25 15.18, 27.02 -0.33 M1.72 37.34 C10.02 22.4, 21.07 11.87, 33.45 -0.76 M-0.87 36.67 C8.67 27.37, 15.89 16.7, 30.98 -0.21 M-0.79 42.23 C11.2 30.16, 20.07 19.5, 37.8 0.84 M0.51 43.47 C14.52 26.9, 27.53 11.29, 36.13 0.24 M-0.28 48.08 C14.45 33.74, 26.88 16.39, 43.86 0.05 M-0.56 48.03 C16.6 29.72, 31.47 12.85, 43.29 -0.01 M-1.56 54.3 C15.57 35.88, 32.27 16.99, 46.75 1.12 M0.33 53.88 C17.49 35.02, 35.66 15.26, 48.42 0.95 M-1.88 61.29 C12.49 45.64, 28.82 28.83, 55 -0.29 M-0.06 60.23 C12.15 46.6, 23.85 33.46, 52.36 -1.07 M-0.29 68.11 C10.65 51.1, 22.89 37.4, 57.28 1.85 M0.54 67.7 C16.11 47.96, 33.58 28.08, 59.02 -0.27 M1.14 70.9 C21.03 49.61, 41.25 25.72, 65.78 0.84 M-0.02 71.88 C19.41 49.62, 37.93 28.36, 63.12 0.13 M4.67 72.34 C25.46 47.91, 44.67 29.62, 66.98 0.2 M5.51 72.83 C31.67 43.42, 56.61 15.63, 68.37 -0.05 M10.45 70.62 C25.27 54.18, 39.02 40.46, 73 -1.37 M10.73 71.22 C28.65 52.87, 44.12 34.38, 75.25 -0.93 M17.72 73.08 C42.73 45.21, 66.77 15.59, 80.37 0.91 M17.19 71.97 C32.06 54.98, 48.95 35.15, 79.18 -0.54 M23.61 71.65 C47.54 41.51, 71.59 15.62, 85.39 -1.13 M22.64 72.87 C46.07 43.91, 69.14 18.04, 84.26 0.2 M26.51 71.79 C47.02 52.72, 63.18 33.02, 90.88 -1.69 M26.73 71.53 C41.25 56.49, 53.92 41.8, 89.47 -0.46 M32.89 71.45 C58.39 42.97, 81.43 14.34, 97.56 -0.05 M33.29 71.53 C52.78 50.56, 71.95 26.44, 96.44 -0.1 M36.55 69.98 C57.44 48.36, 77.6 27.84, 98.81 -1.66 M37.98 71.32 C57.27 49.33, 77.27 26.91, 101.57 -0.07 M41.5 71.08 C60.88 52.42, 80.74 28.49, 108.04 -1.15 M42.56 72.38 C63.53 48.74, 81.97 26.75, 105.88 -0.48 M49.23 71.74 C63.31 55.27, 79.37 37.09, 109.42 0.53 M48.58 72.14 C73.03 42.62, 99.4 13.74, 111.09 -0.17 M53.55 73.19 C74.6 49.15, 96.3 23.63, 116.61 1.89 M53.63 72.07 C68.9 53, 84.46 36.14, 116.81 1.1 M59.87 69.78 C83.65 45.83, 107.57 18.11, 122.82 0 M59 70.7 C72.61 55.89, 85.82 40.95, 121.95 0.88 M64.04 72.02 C78.77 54.57, 93.56 37.28, 124.92 -0.25 M63.97 71.66 C86.91 46.47, 108.76 22.4, 127.24 -0.62 M71.67 71.4 C85.79 54.52, 100.58 38.49, 132.07 1.46 M69.48 70.7 C86.99 51.47, 105.04 30.5, 133.34 0.18 M76.91 71.41 C96.62 50.06, 116.5 26.95, 138.56 1.92 M74.36 71.71 C91.87 52.98, 109.86 33.95, 137.99 -0.69 M81.77 72.46 C97.44 49.61, 118.06 30.03, 145.11 1.22 M81.06 71.77 C95.3 53.94, 109.82 36.94, 142.77 -0.72 M86.96 70.81 C109.06 45.83, 129.6 21.09, 147.69 -0.23 M85.86 71.19 C99.52 55.91, 114.84 36.97, 148.33 0.07 M91.19 71.47 C103.73 56.45, 116.16 41.82, 154.81 1.18 M90.58 72.51 C112 49.77, 129.85 27.54, 153.06 -0.81 M97.94 71.22 C114.27 48.39, 136.82 28.56, 160.36 1.25 M96.84 72.56 C116.63 50.46, 134.7 27.99, 158.35 0.74 M102.85 71.48 C125.72 43.06, 151.35 14.26, 164.92 -1.16 M101.7 71.47 C125.9 43.43, 150.71 14.9, 165.29 -0.63 M108.48 73.29 C119.94 56.8, 135.55 42.04, 168.54 0.9 M107.96 72.71 C123.29 50.92, 140.36 32.46, 169.91 -0.61 M110.96 70.93 C134.12 47.86, 152.55 24.53, 176.11 1.29 M111.17 72.89 C125.11 55.69, 141.11 37.96, 175.87 0.74 M118.12 71.21 C137.59 50.17, 157.26 30.39, 178.1 1.85 M117.17 71.99 C141.76 42.42, 167.17 14.19, 179.69 0.04 M121.56 70.57 C143.12 46.81, 164.45 22.37, 183.95 -0.79 M122.56 72.72 C136.22 57.43, 149.69 41.9, 185.48 0.65 M129.31 70.8 C145.4 51.67, 162.6 32.85, 190.82 1.83 M128.74 71.2 C145.56 52.61, 161.43 33.97, 190.15 -0.35 M134.66 71.99 C149.61 50.98, 166.45 33.93, 196.94 0.87 M133.22 72.11 C155.13 46.42, 178.18 20.67, 196.12 -0.08 M137.42 71.45 C162.63 45.09, 188.46 16.69, 202.39 -0.83 M138.22 72.61 C160.69 49.29, 179.12 25.63, 200.56 -0.85 M144.8 72.66 C156.96 55.3, 175.94 38.61, 206.45 -1.85 M143.99 71.43 C165.45 46.97, 187.13 22.65, 206.08 -0.16 M148.69 72.18 C165.27 56.14, 178.58 35.74, 212.39 -1.21 M149.46 70.91 C172.7 46.78, 193.48 21.97, 211.97 0.4 M154.47 72.62 C167.28 55.45, 181.3 41.91, 216.78 0.52 M155.49 71.99 C171.97 50.54, 191.63 30.21, 216.93 -0.89 M158.31 73.55 C184.5 46.94, 203.9 23.04, 222.31 -1.81 M159.6 72.27 C183.12 43.81, 207.47 18.1, 222.25 -0.77 M164.02 72.49 C183.8 52.87, 199.22 34.68, 227.12 1.02 M165.14 73.04 C189.09 45.88, 212.9 17.59, 228.56 -1.07 M172.33 71.77 C194.6 47.88, 216.15 22.85, 233.57 1.49 M170.08 71.3 C195.01 43.89, 218.7 17.32, 233.04 0.42 M177.74 71.52 C197.74 47.23, 218.41 23.63, 236.93 -0.93 M176.16 72.81 C199.4 43.12, 223.11 15.54, 237.49 0.67 M181.76 72.59 C194.2 55.05, 210.06 38.9, 245.47 1.38 M181.65 72.08 C205.45 44.26, 230.15 14.94, 244.8 0.71 M185.81 73.52 C205.17 50.12, 223.35 33.05, 249.23 0.91 M186.55 71.47 C198.97 56.97, 211.01 43.29, 247.19 1.43 M192.46 73.41 C207.42 54.69, 220.4 40.23, 246.01 9.45 M191.34 71.13 C211.65 47.7, 231.33 26.25, 246.56 8.08 M198.32 72.92 C216.23 48.16, 234.75 24.66, 247.39 12.19 M196.14 72.14 C212.73 55.47, 228.51 36.02, 247.91 13.54 M203.25 73.17 C218.64 55.2, 232.86 38.94, 248.25 21.06 M203.48 72.42 C217.43 56.11, 230.75 40.11, 247.31 19.65 M207.26 72.72 C216.21 62.06, 228.42 50.97, 247.43 25.79 M207.52 71.89 C219.43 61.24, 228.67 47.54, 247.9 25.44 M211.8 70.44 C223.52 56.69, 238.23 44.13, 248.5 30.92 M212.72 72.38 C225.81 55.77, 240.89 40.39, 247.15 32.22 M216.55 70.52 C226.18 61.18, 236.39 51.06, 248.43 39.47 M219.1 72.76 C224.91 64.45, 231.98 56.11, 246.87 38.32 M224.74 73.37 C231.12 63.55, 233.01 60.54, 245.68 46.11 M224.97 70.89 C228.46 66.25, 234.41 59.81, 247.73 44.35 M227.99 72.54 C236.81 64.09, 240.55 57.59, 246.33 52.36 M228.09 72.72 C233.39 66.43, 239.23 58.47, 246.79 51.56 M234.92 70.45 C236.42 70.56, 237.85 64.05, 246.65 56.29 M233.8 73.04 C237.71 67.72, 242.42 63.53, 248.49 55.54 M239.43 71.67 C241.57 69.52, 243.92 64.75, 247.82 63.17 M239.54 72.37 C241.7 68.83, 243.81 66.41, 247.18 62.49" stroke="#fab005" stroke-width="0.5" fill="none"></path><path d="M0.71 1.46 C81.66 2.88, 165.59 1.37, 246.6 0.31 M-0.15 -0.25 C62.75 -0.35, 126.75 -0.39, 245.72 0.76 M244.52 -0.51 C246.57 26.3, 246.32 53.74, 245.47 72.12 M244.64 -0.24 C245.44 24.47, 245.72 49.18, 244.8 71.59 M244.23 71.39 C172.69 70.42, 103.31 71.35, -1.27 71.94 M245.39 71.31 C157.18 72.5, 67.55 71.61, -0.05 70.99 M0.77 70.65 C1.81 44.93, -1.23 17.21, 0.96 -1.31 M0.8 69.95 C-0.63 52.19, -1.35 35.53, -0.41 -0.08" stroke="#000000" stroke-width="1" fill="none"></path></g><g stroke-linecap="round" transform="translate(10 10) rotate(0 138.800048828125 82.4000015258789)"><path d="M-0.24 83.27 C-0.24 83.27, -0.24 83.27, -0.24 83.27 M-0.24 83.27 C-0.24 83.27, -0.24 83.27, -0.24 83.27 M3.87 84.14 C6.24 81.97, 10.36 77.6, 11.75 76.53 M3.59 85.37 C5.23 82.62, 7.52 80.07, 11.69 76.2 M5.71 89.01 C13.06 84, 13.52 77.35, 24.06 69.43 M7.53 87.61 C9.94 82.23, 14.46 78.07, 21.39 68.91 M9.13 89.68 C18.44 81.95, 22.93 74.95, 33.72 64.11 M10.76 89.03 C15.07 83.88, 19.71 77.98, 32.66 62.75 M14.89 91.19 C20.98 84.07, 24.93 78.58, 42.67 58.37 M13.74 91.59 C21.35 83.61, 27.04 75.59, 43.29 56.04 M18.58 93.14 C29.83 80.04, 40.31 64.97, 56.15 50.48 M18.36 92.86 C28.69 81.06, 41.18 66.47, 55.64 50.26 M19.93 95.66 C37.68 77.15, 54.43 59.18, 66.6 42.73 M22.12 95.14 C31.45 83.23, 42.76 70.6, 66.6 42.86 M24.35 96.42 C41.11 74.86, 59.9 54.44, 75.96 38.58 M23.84 97.95 C38.92 79.86, 54.17 63, 77.01 36.71 M26.59 98.22 C45.68 80.74, 66.48 57.32, 86.55 30.13 M28.28 99.99 C47.14 79.5, 64.14 57.31, 88.58 31.06 M32.27 102.01 C50.28 78.98, 71.61 56.88, 99.38 23.24 M31.9 101.56 C47.55 82.25, 62.64 64.84, 99.38 23.05 M34.89 101.52 C52.92 84.62, 67.28 64.25, 109.77 16.82 M34.89 103.63 C53.67 83.89, 70.74 62.54, 109.43 18.37 M37.38 104.28 C68.06 72.01, 101.14 35.11, 120.88 12.15 M38.84 106.21 C60.48 80.19, 82.49 57.05, 121.45 11.02 M43.77 107.17 C76.23 68.6, 108.54 29.63, 132.11 3.96 M41.46 108.39 C72.28 74, 100.33 40.06, 133.26 3.79 M44.7 109.53 C77.3 71.65, 110.34 38.96, 140.62 1.73 M46.26 110.74 C67.91 84.96, 91.88 58.05, 140.46 1.96 M50.43 111.67 C71.86 88.97, 90.33 61.52, 143.57 1.97 M48.58 112.36 C73.19 84.72, 95.54 56.86, 142.72 2.99 M52.44 111.96 C89.2 69.17, 127.1 29.21, 145.71 3.3 M53.33 113.27 C92.21 70.58, 129.29 26.88, 146.48 3.99 M55.01 114.42 C87.34 78.44, 118.59 42.55, 149.09 9.03 M55.65 116.45 C91.54 77.62, 124.01 38.73, 150.76 7.77 M60.81 117.69 C84.31 90.29, 108.36 58.42, 152.59 9.72 M60.58 118.25 C96.27 74.72, 133.28 31.88, 153.75 9.7 M63.89 121.71 C87.14 91.52, 111.8 63.58, 158.9 11.74 M63.17 119.37 C97.57 77.35, 133.92 35.93, 157.96 11.77 M66.58 121.47 C101.14 81.36, 134.58 41.69, 161.44 13.08 M65.45 122.13 C102.88 79.36, 140.78 36.15, 160.12 14.76 M70.41 122.79 C93.08 100.44, 114.99 74.3, 165.26 17.15 M70.45 124.62 C101.71 89.6, 132.26 53.3, 164.3 15.45 M75.09 126.95 C94.89 102.52, 119.18 75.82, 168.04 19.37 M73.31 126.69 C97.17 100.17, 119.55 75.29, 167.89 17.63 M78.12 129.75 C107.95 91.98, 139.9 56.2, 173.65 20.21 M77.9 127.47 C114.42 84.75, 152.53 41.34, 171.35 18.55 M80.33 130.99 C101.4 104.37, 121.07 83.17, 175.78 20.75 M80.55 130.26 C102.69 104.23, 127.33 77.16, 174.85 22.88 M85.55 133.63 C111.25 101.44, 135.14 71.37, 179.51 23.77 M84.73 132.04 C107.68 105.39, 132.12 77.81, 178 23.15 M87.5 136.3 C112.16 104.57, 136.85 77.6, 182.29 24.27 M88.11 135.44 C107.38 112.59, 125.86 90.13, 181.87 26.8 M89.44 136.37 C109.86 111.91, 130.89 89.94, 186.87 27.34 M91.25 136.2 C122.17 99.82, 154.01 64.21, 186.05 29.33 M93.76 139.52 C125.24 101.27, 158.97 63.54, 188.17 31.91 M95.28 138.14 C114.42 116.7, 132.77 93.62, 188.63 30.54 M97.52 142.8 C129.3 102.89, 162.59 62.42, 192.32 31.34 M98.59 140.64 C134.42 97.61, 171.39 55.06, 193.27 32.49 M103.49 143.2 C139.76 98.11, 176.79 55.83, 196.2 32.52 M101.91 142.58 C139.36 100.39, 176.38 58.71, 195.91 35 M103.71 144.67 C137.62 107.2, 166.99 70.57, 201.09 37.36 M104.97 143.85 C135.44 110.42, 164.9 75.74, 198.42 36.57 M109.06 147.78 C141.11 112.89, 171.2 73.57, 204.18 37.9 M108.19 146.27 C126.68 122.87, 148.1 101.2, 203.31 37.9 M112.91 148.65 C140.22 117.79, 167.42 87.81, 205.64 40.86 M111.41 149.1 C140.96 115.79, 171.47 81.58, 206.81 39.82 M114.04 151.62 C140.95 119.81, 167.92 87.67, 211.45 43.47 M114.89 150.99 C151.08 111.38, 184.98 72.04, 208.85 43.52 M120.25 152.27 C150.21 120.23, 177.81 85.6, 214.37 43.24 M120.03 153.46 C151.88 116.87, 182.27 81.97, 214.1 45.77 M121.97 154.98 C141.22 132.11, 162.08 107.01, 218.92 48.58 M123.08 155.86 C147.77 126.63, 175.06 97.16, 216.01 45.9 M127.82 156.01 C149.93 131.06, 171.28 104.51, 218.94 47.79 M125.78 156.82 C147.69 132.17, 170.85 105.21, 220.52 48.25 M131.61 160.03 C148.75 134.33, 171.12 112.49, 225.18 52.71 M130.46 158.27 C165.47 119.1, 200.93 76.72, 222.74 52.15 M131.92 159.24 C156.75 129.8, 180.65 102.03, 226.93 51.71 M132.68 160.84 C157.91 134.6, 180.51 109.24, 226.63 52.39 M137.69 162.86 C156.82 139.53, 178.71 115.76, 232.98 56.28 M137 162.91 C163.38 133.71, 188.97 104.22, 231.08 54.18 M139.83 164.24 C166.73 135.17, 194.97 101.4, 232.52 58.86 M139.58 165.99 C165.22 134.7, 190.28 105.34, 234.92 58.38 M149.38 161.12 C177.26 128.49, 206.18 95.53, 238.08 60.6 M150.51 158.46 C182.71 122.12, 212.83 87.43, 236.9 59.7 M163.48 151.58 C181.34 132.96, 197.41 112.96, 240.48 59.99 M162.83 151.92 C179.19 134.06, 194.12 116.62, 240.82 60.69 M173.25 145.97 C188.55 127.43, 210.04 103.73, 244.44 63.87 M172.55 146.48 C201.42 113.87, 226.98 82.92, 244.15 63.19 M185.56 141.22 C197.85 121.98, 217.37 100.51, 246.18 65.03 M183.43 139.56 C197.53 124.67, 209.74 110.19, 247.76 65.33 M193.91 132.99 C212.07 112.81, 226.51 94.52, 252.99 69.22 M194.06 133.34 C211.37 113.68, 228.32 93.82, 252.59 66.96 M207.43 125.65 C223.86 106.13, 242.66 84.7, 254.23 67.79 M205.88 127.25 C217.89 113.62, 228.39 102.24, 254.72 69.63 M217.77 120.39 C233.01 103.44, 247.96 84.95, 260.24 73.44 M216.18 121.42 C225.28 109.01, 234.2 99.52, 259.41 72.84 M228.07 113.27 C235.7 105.71, 244.08 93.85, 263.21 74.03 M228.17 113.15 C237.3 102.49, 247.52 91.81, 262.04 73.2 M239.85 107.27 C246.72 96.5, 257.09 85.84, 266.26 75.19 M237.99 108.4 C245.2 99.09, 253.55 89.7, 266.27 75.46 M250.02 102.39 C256.31 92.8, 263.54 82.31, 268.91 77.35 M248.73 102.22 C257.38 91.85, 265.38 82.93, 269.63 76.95 M261.66 95.61 C265.1 88.35, 268.29 86.41, 270.86 79.38 M259.52 94.29 C264.06 90.12, 268.24 86.63, 272.3 79.58 M270.32 87.94 C272 85.77, 273.52 84.22, 276.52 82.76 M271.11 88.73 C271.71 86.97, 273.7 85.78, 276.37 82.26" stroke="#fab005" stroke-width="0.5" fill="none"></path><path d="M138.33 -0.99 C195.23 33.43, 249.57 65.22, 277.7 82.93 M138.67 0.84 C186.14 27.72, 231.7 57.02, 278.47 82.66 M279.23 82.1 C245.55 102.83, 214.79 122.06, 140.28 166.42 M277.43 83.29 C228.67 111.68, 177.68 142.53, 138.9 164.78 M139.82 164.97 C95.66 139.16, 54.15 116.24, -0.92 81.79 M139.57 164.49 C91.64 137.73, 44.77 111.32, -0.34 82.4 M0.26 82.18 C31.64 62.3, 61.68 43.35, 138.2 0.18 M0.58 83.05 C40.17 58.6, 82.57 34.27, 138.93 -0.98" stroke="#000000" stroke-width="1" fill="none"></path></g><g transform="translate(69.40011596679688 47.199974060058594) rotate(0 85.5 40)"><text x="85.5" y="30" font-family="Virgil, Segoe UI Emoji" font-size="28px" fill="#000000" text-anchor="middle" style="white-space: pre;" direction="ltr">被static/</text><text x="85.5" y="70" font-family="Virgil, Segoe UI Emoji" font-size="28px" fill="#000000" text-anchor="middle" style="white-space: pre;" direction="ltr">extern修饰？</text></g><g stroke-linecap="round"><g transform="translate(190.7291786310907 214.2678792696039) rotate(310.5263836566399 -39.0519111433822 32.293453708143375)"><path d="M0.21 -0.37 C-12.68 10.56, -64.71 55.28, -77.69 66.2 M-1.14 -1.61 C-14.1 8.92, -65.48 53.16, -78.31 64.48" stroke="#000000" stroke-width="1" fill="none"></path></g><g transform="translate(190.7291786310907 214.2678792696039) rotate(310.5263836566399 -39.0519111433822 32.293453708143375)"><path d="M-64.39 39.28 C-66.28 46.4, -71.97 51.75, -80.12 63.75 M-62.85 37.99 C-66.7 44.34, -71.32 50.83, -78.45 63.95" stroke="#000000" stroke-width="1" fill="none"></path></g><g transform="translate(190.7291786310907 214.2678792696039) rotate(310.5263836566399 -39.0519111433822 32.293453708143375)"><path d="M-50.93 54.77 C-56.54 57.73, -65.86 58.9, -80.12 63.75 M-49.38 53.48 C-56.29 56.24, -63.94 59.24, -78.45 63.95" stroke="#000000" stroke-width="1" fill="none"></path></g></g><g stroke-linecap="round" transform="translate(12.600016276041515 519.5998306274414) rotate(0 138.800048828125 82.4000015258789)"><path d="M-0.24 83.27 C-0.24 83.27, -0.24 83.27, -0.24 83.27 M-0.24 83.27 C-0.24 83.27, -0.24 83.27, -0.24 83.27 M2.28 84.78 C4.45 82.85, 6.48 81.91, 10.63 75.63 M3.4 85.46 C6.31 82.26, 8.02 80.1, 11.05 75.7 M7.07 87.67 C11.9 80.43, 15.98 76.2, 21.97 69.42 M7.74 87.52 C11.65 83.6, 14.06 78.45, 22.37 70.27 M9.2 87.47 C18.52 82.44, 24.13 76.37, 32.21 64.15 M11.47 89.46 C18.56 79.74, 27.92 69.96, 33.22 63.66 M12.2 90.7 C22.81 81.2, 31.91 70.94, 42.47 55.03 M13.23 92.27 C24.32 80.03, 33.33 68.11, 44.73 56.9 M17.09 93.46 C25.62 83.62, 35.18 70.93, 53.46 51.74 M17.94 93.29 C28.22 82.35, 38.48 68.82, 54.76 50.25 M20.58 93.79 C35.78 79.16, 49.88 62.38, 66.66 43.47 M21.86 94.39 C30.53 83.84, 42.5 71.02, 66.42 42.76 M26.63 98.73 C35.47 83.95, 48.66 73.25, 76.61 37.94 M25.24 97.4 C39.63 81.25, 55.08 63.62, 76.46 36.65 M28.07 97.89 C52.03 73.42, 71.87 48.89, 87.82 31.02 M28.06 99.14 C50.36 73.02, 73.58 46.41, 87.28 29.33 M30.2 102.46 C48.98 82.51, 67.2 59.71, 99.01 25.74 M30.65 100.82 C54.28 74.38, 77.88 47.18, 99.27 23.85 M33.74 101.85 C50.93 86.95, 66.82 66.9, 108.78 17.63 M34.84 104.06 C54.26 82.94, 73.36 59.51, 109.58 16.62 M38.43 106.69 C70.14 72.11, 97.44 40.68, 123.17 10.01 M38.56 104.36 C56.47 85.01, 74.99 63.6, 121.72 10.14 M40.64 106.43 C77.53 68.88, 115.27 23.96, 133.98 3.11 M41.56 108.02 C63.07 82.44, 85.17 59.01, 133.04 4.44 M44.92 108.39 C75.2 73.65, 108.48 38.72, 138.35 1.33 M46.14 109.66 C77.09 74.38, 108.41 38.1, 140.38 1.87 M51.02 110.31 C73.09 84.6, 97.6 55.42, 142.98 3.56 M50.13 112.15 C83.42 71.87, 119.3 32.96, 143.39 3.72 M53.45 115.43 C72.02 87.41, 94.32 64.57, 145.73 4.2 M53.66 114.12 C78.58 84.37, 103.59 54.9, 148.17 4.73 M55.11 118.05 C86.68 76.49, 123.12 39.74, 151.31 5.82 M56.8 116.91 C93.87 72.03, 131.15 30.37, 150.15 8.08 M58.83 118.59 C94.09 77.85, 129.23 36.91, 152.83 7.65 M60.24 117.99 C89.43 82.47, 120.93 45, 153.65 9.33 M62.37 120.14 C103.74 75.63, 139.83 33.49, 156.77 12.18 M62.39 119.01 C93.01 87.69, 120.11 55.12, 158 11.43 M65.37 124.3 C93.64 91.32, 123.05 59.5, 159.9 14.94 M65.39 122 C100.7 83.02, 134.55 43.53, 160.51 13.88 M70.21 124.97 C104.56 85.17, 137.25 47.45, 164.2 16.35 M70.07 124.52 C89.19 102.86, 108.19 79.83, 164.51 15.01 M75.02 126.91 C114.13 82.71, 150.41 42.33, 167.81 18.24 M74.08 126.72 C103.82 91.21, 133.93 54.32, 168.39 17.91 M79.27 126.82 C108.63 92.47, 138.81 55.8, 172.66 18.95 M77.55 127.75 C99.35 100.33, 124.25 73.17, 172.32 19.88 M79.34 128.91 C107.85 98.67, 135.76 65.64, 174.04 22.87 M79.78 131.77 C112.49 95.54, 143.32 59.46, 173.92 21.47 M82.15 133.91 C108.25 104.53, 135.14 72.22, 180.18 23.51 M84.91 132.35 C113.11 100.05, 141.83 66.88, 178.92 23.88 M86.1 133.7 C120.55 99.44, 147.71 62.68, 183.27 24.06 M88.02 135.54 C122.13 95.76, 156.84 53.86, 182.29 24.95 M90.67 136.33 C115.88 106.68, 139.57 80.07, 186.34 29.21 M90.78 136.23 C118.48 105.23, 144.95 75.4, 184.2 29.39 M96.04 137.6 C129.42 99.56, 161.08 59.97, 188.18 30.95 M94.17 138.23 C116.53 113.69, 139.63 86.98, 189.03 29.99 M96.64 142.1 C122.51 113.41, 147.06 82.9, 192.33 31.15 M98.13 140.63 C118.41 117.87, 139.06 93.54, 193.5 32.6 M102.14 141.81 C121.21 120.64, 139.32 97.48, 196.66 34.59 M101.67 142.85 C140.8 99.12, 177.9 54.85, 196.26 34.56 M107.05 145.13 C137.52 110.55, 168.41 72.29, 200.96 36.57 M104.5 145.06 C140.4 104.76, 174.05 65.98, 198.67 36.74 M110.32 148.46 C131.78 117.91, 160.3 91.11, 204.56 39.92 M107.79 148.18 C133.76 118.55, 160.64 87.61, 202.41 37.92 M112.89 149.25 C135.14 122.07, 156.37 97.67, 207.25 41.62 M111.77 148.34 C140.11 115.44, 169.78 81.57, 205.61 39.84 M114.73 152.58 C136.68 128.93, 159.79 102.84, 210.29 42.55 M115.88 151.83 C135.72 129.51, 156.81 105.49, 209.83 42.37 M120.36 152.2 C139.26 129.88, 156.18 107.99, 215.21 43.36 M120.39 153.58 C147.29 121.25, 175.44 89.07, 214.06 45.73 M122.51 154.1 C159.34 114.34, 191.32 75.34, 218.87 44.99 M123.13 155.17 C150.13 124.47, 175.79 93.45, 217.83 46.49 M127.63 157.6 C165.34 114.57, 200.5 73.12, 221.03 47.76 M127.14 157.21 C149.3 128.82, 173.47 102.46, 219.85 49.02 M128.97 157.86 C158.29 127.8, 184.84 97.16, 221.94 52.92 M130.78 158.39 C157.49 127.89, 184.17 98.92, 223.72 50.46 M132.08 163 C159.73 130.94, 182.83 104.63, 225.92 53.69 M133.37 161.92 C169.97 119.73, 206.36 78.07, 226.62 54.15 M138.45 165.62 C169.43 123.68, 205.16 88.53, 232.35 55.89 M135.92 163.48 C171.44 121.75, 206.38 82.61, 230.37 55.69 M139.07 163.86 C169 131.97, 197.65 100.5, 234.6 57.68 M140.78 165.73 C178.3 122.93, 214.35 81.49, 233.44 57.08 M150.67 159.71 C168.64 137.45, 188.44 113.93, 236.92 59.41 M150.94 158.91 C184.12 121.07, 216.35 82.46, 237.97 59.95 M163.6 152.92 C192.34 116.45, 224.83 82.02, 239.43 62.16 M162.05 152.32 C178.88 132.36, 194.62 113.27, 241.83 60.56 M171.79 146.94 C202.84 115.29, 229.28 81.93, 243.7 64.84 M173.47 146.51 C195.84 118.68, 219.95 91.09, 244.3 64.25 M184.44 141.29 C200.27 120.72, 214.31 105.01, 248.36 67.72 M184.01 139.16 C203.52 115.64, 225.63 91.62, 248.79 65.41 M194.99 133.59 C218.44 105.57, 238.23 82.34, 250.69 69.49 M194.05 133.45 C214.02 111.61, 230.56 89.86, 252.48 67.94 M204.04 127.66 C219.05 110.09, 232.38 93.9, 255.59 69.86 M206.51 127.63 C216.89 114.82, 227.19 102.93, 254.42 70.23 M216.28 119.53 C225.28 110.05, 235.16 102.35, 256.48 71.32 M216.91 121.41 C227.11 110.1, 236.97 97.57, 258.54 72.4 M227.44 113.58 C240.26 99.21, 253.08 83.07, 262.25 74.98 M226.37 113.45 C239.77 100.5, 249.94 88.22, 261.62 74.44 M237.23 108.54 C245.21 98.14, 252.81 89.52, 264.23 77.15 M237.69 107.84 C244.46 99.78, 251.17 93.87, 266.44 76.29 M248.28 101.55 C252.59 97.46, 258.5 90.35, 267.73 76.39 M248.34 101.58 C255.31 94.3, 262.17 86.25, 270.39 77.23 M259.09 94.32 C264.18 90.28, 267.64 88.36, 273.66 79.11 M260.48 95.01 C262.35 90.95, 265.03 88, 273.14 80.84 M270.85 88.63 C271.68 87.33, 274.25 85.25, 275.43 82.35 M270.6 88.78 C272.96 85.98, 274.63 84.19, 275.9 82.46" stroke="#15aabf" stroke-width="0.5" fill="none"></path><path d="M138.46 -1.04 C184.73 26.63, 226.79 53.23, 277.43 83.66 M138.95 -0.62 C181.39 26.54, 223.62 51.33, 278.17 82.36 M277.04 83.44 C242.72 103.95, 205.32 126.02, 137.8 163.29 M277.8 83.37 C244.72 102.83, 212.54 122.79, 139.51 164.79 M140.17 165.52 C99.27 139.93, 54.39 118.51, -0.96 82.99 M138.26 164.63 C90.68 136.68, 40.23 107.49, 0.6 82.72 M-1.95 81.65 C53.06 53.26, 107.39 20.12, 137.38 -1.31 M-0.48 83.84 C45.13 57.17, 90.81 29.04, 139.82 0.74" stroke="#000000" stroke-width="1" fill="none"></path></g><g transform="translate(91.56178792317712 322.6096343994142) rotate(0 70 20)"><text x="0" y="30" font-family="Virgil, Segoe UI Emoji" font-size="28px" fill="#000000" text-anchor="start" style="white-space: pre;" direction="ltr">静态存储类</text></g><g transform="translate(70.50004069010402 587.9998321533203) rotate(0 93 20)"><text x="93" y="30" font-family="Virgil, Segoe UI Emoji" font-size="28px" fill="#000000" text-anchor="middle" style="white-space: pre;" direction="ltr">被const修饰？</text></g><g stroke-linecap="round"><g transform="translate(149.80337255615257 688.7048279051235) rotate(0 -1.8061196308058811 103.00936122931614)"><path d="M1.03 0.69 C0.45 34.98, -2.87 170.52, -3.93 204.57 M0.12 0.01 C-0.54 34.59, -4.14 171.61, -4.65 206.01" stroke="#000000" stroke-width="1" fill="none"></path></g><g transform="translate(149.80337255615257 688.7048279051235) rotate(0 -1.8061196308058811 103.00936122931614)"><path d="M-13.16 178.34 C-12.34 183.41, -9.12 191.28, -4.99 205.04 M-15.3 178.52 C-11.29 184.6, -8.6 194.04, -5.36 206.26" stroke="#000000" stroke-width="1" fill="none"></path></g><g transform="translate(149.80337255615257 688.7048279051235) rotate(0 -1.8061196308058811 103.00936122931614)"><path d="M7.36 178.78 C2.78 183.91, 0.61 191.66, -4.99 205.04 M5.21 178.95 C3.57 185.05, 0.6 194.37, -5.36 206.26" stroke="#000000" stroke-width="1" fill="none"></path></g></g><g stroke-linecap="round" transform="translate(28.666809082031023 900.0000915527344) rotate(0 122.66670735677081 35.46666208902991)"><path d="M0 0 C0 0, 0 0, 0 0 M0 0 C0 0, 0 0, 0 0 M0.05 6.92 C0.58 5.7, 2.15 3.46, 5.12 1.06 M-0.12 6.69 C1.13 5.07, 2.55 3.05, 5.31 0.44 M-0.44 13.61 C2.6 7.83, 4.09 4.5, 11.83 -1.28 M0.77 11.7 C3.1 8.72, 7.4 4.41, 11.16 -0.72 M-0.74 20.34 C4.2 12.16, 10.2 5.09, 17.58 0.48 M0.83 17.73 C4.28 15.4, 5.89 11.05, 15.46 -0.38 M-0.45 23.82 C8.52 17.61, 13.64 10.09, 21.2 -1.47 M0.72 25.04 C9.43 14.11, 16.07 5.82, 22 0.61 M1.8 29.28 C8.28 19.13, 16.1 8.6, 26.95 -0.97 M0.73 29.91 C8.67 19.41, 19.12 8.4, 27.04 0.58 M-0.91 38.04 C9.32 26.96, 16.98 14.76, 31.48 -1.26 M-1.22 36.67 C8 26.97, 15.51 18.15, 31.51 -0.49 M1.05 42.21 C10.06 30.78, 21.68 17, 35.77 0.81 M-0.32 43.33 C12.3 27.55, 24.62 13.57, 37.82 -0.71 M0.8 49.06 C13.86 33.05, 27.57 14.49, 41.34 0.79 M-0.86 48.38 C8.9 39.43, 18.01 28.18, 42.22 -0.81 M-1.48 55.75 C18.37 32.31, 34.37 12.13, 45.96 -1.25 M-0.52 54.9 C20.03 33.65, 37.06 11.44, 47.54 0.37 M1.09 61.45 C19.22 35.33, 40.88 14.62, 51.78 1.3 M0.33 61.13 C12.8 46.22, 25.05 29.64, 53.47 -0.69 M1.67 66.15 C22.15 43.27, 44.58 13.49, 57.06 1.69 M0.28 66.6 C18.7 45.89, 36.33 24.52, 57.38 0.28 M-0.73 74.17 C22.22 50.72, 40.13 27.32, 64.36 -2.18 M1.62 72.16 C23.57 46.83, 46.43 21.58, 64.55 -1.18 M7.06 72.78 C24.31 55.32, 40.25 37.32, 68.19 0.37 M6.66 71.91 C24.96 49.49, 45.15 26.67, 69 0.23 M10.76 70.28 C31.35 49.21, 53.22 21.78, 75.24 -1.2 M11.29 71.72 C32.88 48.09, 52.66 24.32, 73.72 -1.02 M18.71 70.74 C40.17 46.56, 60.72 22.24, 80.06 1.45 M17.05 71.4 C38.11 47.16, 59.3 24.17, 79.5 -0.74 M21.57 70.62 C36.69 54.93, 51.37 39.14, 85.21 1.59 M22.03 71.69 C37.04 55.53, 51.47 38.8, 85.17 0.35 M28.56 72.79 C42.74 54.52, 55.04 38.16, 88.98 1.49 M27.13 71.72 C48.97 47.22, 70.43 24.45, 90.42 -0.81 M31.12 70.63 C52.58 50.97, 68.71 27.77, 97.59 -1.54 M32.84 71.49 C53.54 49.1, 74.14 26.7, 96.06 -0.23 M39.1 70.06 C51.11 55.27, 66.61 37.67, 100.85 0.96 M37.51 71.3 C51.82 54.15, 67.54 38.09, 100.78 -0.35 M44.45 73.64 C66.86 42.59, 90.07 17.78, 104.36 -1.42 M44.16 72.28 C63.55 48.68, 84.35 25.81, 105.49 -0.61 M49.4 70.59 C65.82 50.32, 84.86 30.38, 113.17 -1.78 M48.73 71.82 C70.84 45.65, 93.78 20.58, 112.04 -0.95 M54.17 72.91 C73.08 47.39, 94.5 27.2, 115.38 -1.22 M54.88 72.06 C75.14 47.24, 97.9 22.28, 116.87 0.4 M61.13 73.35 C82.65 47.59, 102.33 20.09, 121.03 -0.45 M60.28 71.31 C83.86 44.94, 107.69 17.47, 121.1 -0.38 M66.5 73.58 C79.88 55.42, 92.45 39.31, 127.12 -1.48 M65.36 72.59 C88.52 44.99, 111.24 17.95, 127.53 1.05 M68.55 70.18 C92.88 47.75, 112.61 22.24, 131.11 1.14 M69.61 71.05 C94.58 43.94, 117.97 18.71, 133.33 0.37 M75.25 70.72 C87.92 55.22, 102.24 40.15, 136.64 -1.56 M74.39 72.47 C100.07 44.41, 124.67 17.62, 137.78 0.11 M80.51 71.84 C93.9 57.87, 107.29 42.47, 143.68 -0.93 M81.15 70.66 C103.78 44.82, 125.48 20.04, 143.55 0.1 M87.82 71.29 C104.51 51.93, 123.59 30.61, 146.26 -0.65 M86.24 72.05 C100.17 56.85, 112.64 39.85, 148.53 0.93 M90.47 70.01 C104.96 55.88, 122.26 39.46, 154.62 -0.65 M91.23 71.03 C103.02 55.73, 116.79 41.9, 153.04 0.42 M95.2 72.17 C113.33 53.12, 132.84 31.64, 156.92 0.95 M95.61 72.51 C117.19 48.72, 137.27 25.17, 159.67 1.13 M102.46 71.25 C127.34 45.53, 150.41 18.18, 165.4 -0.12 M101.17 71.35 C120.85 50.55, 137.97 30.98, 164.52 0.74 M105.99 70.12 C125.68 52.06, 141.34 31.75, 170.11 -0.17 M106.67 72.83 C129 45.31, 152.73 19.17, 169.01 -0.36 M112.46 71.81 C132.05 49.91, 151.63 27.96, 177.06 0.46 M111.57 72.86 C136.16 45.03, 161.59 14.93, 175.16 -0.74 M116.37 71.84 C141.38 43.35, 165.68 20.09, 181.94 -0.49 M118.03 72.75 C134.54 52.37, 151 31.51, 179.34 -0.32 M121.03 72.56 C149.29 43.71, 173.7 15.1, 184.27 0.81 M121.98 72.85 C140.6 52.34, 159.3 31.33, 185.59 -0.02 M128.11 71.91 C149.09 43.54, 173.29 20.64, 189.11 0.41 M127.76 71.84 C140.85 58.1, 153.09 42.73, 191.39 -0.21 M135.31 73.55 C150.08 52.14, 169.78 29.92, 197.26 -1.44 M133.9 72.15 C154.02 48.17, 174.72 24.47, 196.91 -0.31 M138.58 70.84 C156.14 53.71, 171.46 34.86, 202.92 1.85 M138.38 72.45 C157 51.53, 174.26 30.16, 200.84 0.76 M145.74 72.98 C162.61 49.86, 183.61 28.73, 207.88 -0.77 M144.45 73.14 C158.27 56.41, 170.53 42.12, 207.65 -1.02 M150.75 73.02 C169.25 51.12, 186.25 26.27, 211.24 0.07 M149.87 72.75 C171.93 45.11, 195.17 20.02, 211.34 0.73 M155.33 73.96 C176.53 46.33, 196.76 22.53, 219.56 -1.75 M154.71 71.5 C171.45 52.08, 188.84 32.07, 216.79 -0.76 M159.18 72.76 C173.08 54.88, 189 42.55, 224.56 -1.8 M160.65 71.68 C175.15 54.88, 189.32 38.09, 223.48 0.1 M165.67 70.49 C184.46 51.12, 201.61 30.2, 229.33 -1.04 M164.72 71.2 C189.41 43.77, 213.38 16.21, 228.79 -0.34 M172.02 72.29 C191.47 47.63, 214.54 20.08, 233.96 0.28 M170.61 71.99 C194.98 43.88, 220.83 14.9, 233.79 0.58 M174.97 73.5 C191.22 57.26, 204.74 38.71, 237.14 -0.63 M176.44 71.52 C188.27 57.81, 202.8 43.23, 237.87 0.97 M181.01 71.71 C199.2 52.2, 215.5 32.11, 245.1 1.27 M182.07 71.23 C198.51 49.66, 216.55 29.15, 243.79 0.17 M188.03 72.81 C199.59 55.06, 214.7 39.89, 249.23 0.63 M186.83 72.03 C209.94 45.84, 231.39 20.43, 248.41 0.96 M191.5 71.06 C209.3 53.23, 221.12 37.15, 249.02 9.32 M192.84 70.73 C206.41 53.09, 223.16 34.63, 247.7 8.49 M198.21 71.16 C216.15 47.97, 237.4 26.16, 246.86 15.61 M196.77 71.58 C213.3 53.61, 230.3 34.76, 246.66 14 M204.42 72.27 C221.59 51.35, 236.7 30.17, 246.51 18.66 M203.14 70.64 C216.23 57.71, 228.53 43.02, 247.86 20.6 M209.52 70.17 C222.16 53.86, 236.86 35.11, 246.62 24.71 M208.09 71.34 C217.99 61.67, 227.6 49.85, 248.06 25.91 M214.28 73.19 C226.93 57.6, 241.48 43.77, 246.32 33.2 M212.67 70.89 C224.15 58.96, 234.95 45.41, 247.92 31.62 M218.51 72.39 C224.13 64.2, 232.05 57.02, 246.85 37.56 M218.6 71.77 C227.65 61.89, 238.21 49.12, 246.68 38.61 M223.23 69.56 C227.3 66.22, 232.76 60.71, 248.47 43.51 M223.58 72.21 C233.35 61.91, 241.6 52.89, 247.19 44.75 M228.36 71.28 C235.16 66.01, 240.95 60.81, 245.45 49.41 M229.04 71.63 C234.91 64.31, 240.58 58.19, 247.98 51.56 M234.3 73.78 C239.77 68.23, 240.64 61.51, 249.6 57.06 M234.81 71.88 C236.79 68.89, 240.24 63.19, 246.92 56.47 M239.16 72.65 C242.94 69.56, 244.93 67.91, 246.58 63.35 M239.93 71.31 C241.7 69.87, 242.75 67.84, 247.77 63.08" stroke="#15aabf" stroke-width="0.5" fill="none"></path><path d="M0.7 -1.51 C72.47 2.39, 142.34 2.34, 244.04 -0.94 M-0.12 0.77 C74.7 -0.39, 148.14 1.03, 245.9 0.68 M243.59 -1.3 C247.04 25.12, 247.09 51.88, 246.35 69.92 M246.22 0.39 C244.89 17.02, 244.15 33.4, 244.89 71.27 M244.96 70.37 C156.18 71.62, 69.47 72.1, -0.29 69.32 M244.99 70.5 C187.48 71.51, 129.14 72.29, 0.11 71.22 M-0.35 71.12 C2.29 50.6, 2.54 34.09, -0.93 0.45 M-0.02 71.38 C0.33 55.02, 0.3 37.57, -0.17 0.96" stroke="#000000" stroke-width="1" fill="none"></path></g><g transform="translate(90.19999186197902 922.799919128418) rotate(0 66 20)"><text x="66" y="30" font-family="Virgil, Segoe UI Emoji" font-size="28px" fill="#000000" text-anchor="middle" style="white-space: pre;" direction="ltr">.rodata段</text></g><g stroke-linecap="round"><g transform="translate(305.23812196941947 599.7442830516067) rotate(0 83.1677392327029 0.5976666351714357)"><path d="M-0.98 1.46 C38.55 -1.67, 78.94 0.3, 166.97 2.32 M-0.99 -0.33 C55.72 -1.14, 110.71 -1.91, 167.32 0.51" stroke="#000000" stroke-width="1" fill="none"></path></g><g transform="translate(305.23812196941947 599.7442830516067) rotate(0 83.1677392327029 0.5976666351714357)"><path d="M137.88 11.44 C144.41 5.99, 151.87 5.54, 166.86 2.11 M137.87 9.66 C148.81 6.74, 158.04 2.62, 167.21 0.31" stroke="#000000" stroke-width="1" fill="none"></path></g><g transform="translate(305.23812196941947 599.7442830516067) rotate(0 83.1677392327029 0.5976666351714357)"><path d="M138.45 -9.07 C144.98 -9.66, 152.3 -5.25, 166.86 2.11 M138.44 -10.85 C149.19 -7.01, 158.24 -4.38, 167.21 0.31" stroke="#000000" stroke-width="1" fill="none"></path></g></g><g stroke-linecap="round" transform="translate(484.59995524088527 521.1999588012695) rotate(0 138.800048828125 82.4000015258789)"><path d="M-0.24 83.27 C-0.24 83.27, -0.24 83.27, -0.24 83.27 M-0.24 83.27 C-0.24 83.27, -0.24 83.27, -0.24 83.27 M4.11 84 C5.15 81.54, 8.65 79.3, 11.79 76.18 M3.37 85.36 C6.67 81.47, 8.71 78.57, 11.01 75.61 M8.58 87.83 C9.76 81.31, 14.67 79.66, 21.69 68.56 M7.2 86.24 C10.88 83.29, 13.8 79.89, 21.57 69.77 M10.46 87 C17.77 81.65, 21.67 74.97, 31.38 64.38 M9.95 89.75 C18.97 81.16, 24.86 72.73, 33.27 63.07 M14.79 92.46 C24.83 78.02, 34.14 65.51, 42.09 56.41 M13.3 91.58 C26.08 78.42, 36.01 66.83, 43.43 55.9 M16.89 94.06 C31.02 78.77, 47.13 60.69, 54.02 52.2 M18.17 92.96 C25.33 83.98, 33.93 73.97, 55.07 50.13 M22.92 97.24 C34.36 82.64, 47.69 64.97, 65.4 44.37 M20.21 95.33 C33.15 80.79, 46.38 65.75, 65.74 43.16 M26.56 99 C41.34 77.09, 60.61 59.59, 77.92 38.49 M24.93 96.4 C40.01 79.85, 56.76 60.01, 76.47 36.9 M27.77 98.31 C52.28 72.15, 72.98 44.64, 86.73 31.55 M27.79 99.63 C42.33 83.55, 57.45 66.75, 88.08 30.34 M33.47 100.03 C47.12 82.82, 62.22 67.87, 97.9 23.88 M31.37 102.31 C51.84 77.13, 72.61 52.3, 100.08 24.55 M33.66 104.41 C49.95 85.53, 65.29 67.46, 111.09 17.35 M34.84 104.06 C54.27 81.39, 74.06 60.01, 109.79 16.96 M38.14 106.95 C73.59 66.55, 106.68 30.64, 120.32 11.56 M39.07 104.87 C69.59 69.8, 99.99 34.13, 122.42 10.66 M43.2 108.89 C65.28 78.38, 89.94 52.34, 133.38 5.78 M42.81 108.66 C76.88 67.66, 112.93 26.78, 133 4.45 M44.38 109.13 C74.57 77.77, 105.84 41.38, 140.54 3.14 M45.74 109.23 C77 75.19, 106.06 39.8, 140.4 2.08 M48.53 113.68 C78.9 76.89, 111.84 43.49, 143.93 1.78 M50.07 110.91 C73.39 82.47, 98.68 53.75, 143.18 3.55 M54.53 115.57 C75.88 84.11, 102.81 59.39, 148.19 4.81 M53.55 114.48 C86.79 73.86, 121.14 33.96, 147.61 4.1 M56.06 117.31 C87.87 80.54, 121.67 42.87, 149.37 5.76 M55.69 116.77 C88.29 79.53, 120.05 41.91, 150.98 7.82 M58.22 118.83 C80.75 95.41, 100.5 69.64, 153.54 10 M58.82 118.66 C82.13 90.83, 104.08 65.43, 153.64 10.12 M61.74 118.89 C97.63 76.3, 132.98 36.33, 158.91 10.2 M63.64 119.62 C83.64 95.92, 102.28 72.7, 157.51 11.29 M66.94 123.83 C93.73 92.79, 120.25 63.58, 161.9 13.03 M65.64 122.52 C90.69 95.89, 114.51 69.69, 161.54 14.28 M71.81 126.15 C92.01 99.49, 114.89 72.24, 165.12 15.77 M70.56 125.33 C100.63 88.6, 132.54 52.84, 164.13 15.48 M74.09 128.07 C111.71 84.71, 148.11 44.62, 169.52 15.84 M72.9 126.75 C93.22 105.13, 111.98 82.86, 168.67 17.21 M78.02 127.39 C102.59 101.91, 124.54 76.25, 171.08 18.68 M78.02 127.19 C104.98 95.8, 132.31 62.69, 172.63 19.84 M79.02 129.93 C111.94 93.09, 145.4 53.18, 175.56 20.22 M81.31 131.28 C109.29 98.48, 138.69 63.47, 175.7 21.23 M82.42 131.51 C107.65 104, 133.07 77.4, 179.16 22.77 M84.26 132.95 C116.05 95.08, 148.16 55.31, 178.94 24.81 M89.59 133.34 C117.13 100.95, 145.02 67.91, 180.71 24.52 M87.02 134.94 C112.37 105.05, 139.59 75.53, 182.24 26.1 M92.59 136 C113.42 110.31, 137.95 81.34, 185.62 28.19 M90.45 135.83 C115.53 105.97, 140.36 78.87, 184.79 27.5 M94.96 139.85 C113.65 117.31, 134.49 92.99, 187.96 31.72 M95.33 138.57 C130.26 97.13, 164.67 57.09, 188.54 30.05 M98.38 138.96 C130.16 102.24, 165.32 63.27, 192.6 31.71 M98.42 141.5 C126.36 110.6, 151.7 80.42, 192.69 32.99 M100.81 144.59 C137.01 102.58, 172.56 61.16, 197.83 33.37 M100.98 141.91 C121.97 119.4, 143.07 94.61, 195.81 34.76 M107.18 143.07 C143.06 99.65, 179.73 58.11, 200.19 34.94 M104.92 145.05 C141.41 104.53, 176.06 63.1, 198.98 37.57 M110.12 148.3 C135.89 114.53, 165.42 83.22, 201.1 37.63 M107.87 146.68 C145.14 104.87, 183.09 62.28, 203.91 38.37 M112.66 147.61 C146.4 108.36, 180.46 70.26, 205.01 41.07 M111.37 150.07 C147.48 109.99, 180.78 69.12, 207.43 40.45 M114.36 149.29 C137.7 126.35, 161.73 99.3, 209.44 41.99 M115.33 151.56 C149.89 112.26, 183.42 73.77, 208.97 43.2 M118.01 152.45 C154.75 116.15, 187.73 76.68, 212.98 46.89 M120.14 153.57 C138.56 129.39, 158.87 106.62, 212.97 44.84 M122.33 155.49 C148.34 125.21, 176.23 94.25, 215.43 45.53 M121.85 155.17 C142.32 132.93, 162.39 111.11, 216.42 47.03 M124.71 158.05 C147.81 133.56, 166.96 107.74, 222.52 46.79 M126.24 157.04 C158.92 121.22, 189.71 85.15, 219.96 48.86 M131.33 160.41 C155.21 129.6, 177.45 103.95, 224.59 53.2 M129.36 159.08 C158.39 125.99, 187 91.42, 224.02 50.38 M131.79 161.46 C159.42 127.61, 188.25 97.31, 225.34 52.76 M133.62 161.39 C160.12 130.12, 186.47 100.25, 227.92 52.62 M135.95 163.15 C171.06 121.31, 208.21 80.33, 229.94 56.51 M136.94 162.83 C158.24 137.78, 180.65 111.87, 231.43 54.16 M140.53 164.35 C169.13 134.23, 197.27 98.84, 233.04 59.12 M140.88 166.02 C164.48 137.43, 189.64 108.27, 233.16 57.9 M150.53 160.1 C169.97 139.12, 189.4 113.58, 236.83 57.6 M150.33 158.59 C170.88 134.75, 192.44 111.62, 238.02 58.79 M160.19 152.35 C181.11 129.55, 201.47 109.5, 241.12 62.77 M162 153.14 C180.21 132.06, 198.08 110.85, 241.76 61.45 M172.13 144.81 C201.67 112.73, 228.66 79.2, 246.1 65.17 M173.87 146.05 C200.01 115.13, 227.15 83.53, 245.05 63.11 M182.1 140.16 C202.02 117.15, 220.35 96.99, 249.01 67.49 M183.41 139.9 C205.59 113.75, 228.88 86.48, 248.65 66.23 M193.15 134.98 C206.13 120.27, 219.07 105.56, 250.89 66.53 M194.13 134.41 C207.64 118.66, 221.2 103.6, 251.47 67.43 M203.59 128.7 C218.64 108.51, 234.32 92.59, 254.67 68.63 M204.94 126.54 C216.3 114.88, 227.57 104.34, 255.15 69.13 M217.12 122.57 C229.53 105.77, 240.57 92.79, 259.21 72.34 M216.7 121.49 C229.2 106.67, 242.47 91.31, 257.48 73.25 M226.88 112.52 C238.38 101.19, 249.39 90.69, 263.35 73.14 M227.68 114.76 C240.11 100.64, 251.32 85.42, 262.8 74.02 M237.48 108.16 C244.58 101.23, 249.47 91.77, 265.99 76.84 M237.99 107.11 C245.77 99.37, 251.55 92.48, 265.59 76.53 M249.11 101.72 C253.82 94.95, 259.85 89.26, 270.83 79.55 M249.07 100.69 C254.37 94.39, 262.39 87.61, 269.52 78.71 M259.59 94.92 C263.04 92.48, 267.32 89.37, 273.04 82.03 M260.15 94.05 C263.56 90.77, 268.72 85.99, 271.67 80.91 M271.47 88.25 C273.57 86.18, 274.65 84.23, 276.15 82.23 M271.26 88.23 C272.52 87.17, 274.05 85.26, 275.86 82.21" stroke="#82c91e" stroke-width="0.5" fill="none"></path><path d="M138.07 -0.89 C185.28 30.52, 232.17 57.55, 278.97 82.26 M139.46 -0.82 C190.5 28.7, 242.3 60.26, 278.56 83.77 M277.06 83.21 C223.81 115.13, 174.98 142.82, 140.55 165.91 M277 83.63 C223.77 115.65, 169.78 147.93, 138.16 164.07 M139.35 163.36 C85.21 134.3, 28.25 100.95, -1.22 81.82 M139.5 165.58 C88.89 134.92, 36.57 105.54, 0.02 82.36 M-1.76 82.1 C34.93 62.92, 70.99 39.31, 137.36 0.93 M0.98 83.24 C42.53 55.72, 86.45 31, 138.83 0.11" stroke="#000000" stroke-width="1" fill="none"></path></g><g transform="translate(164.28578985305035 769.2285090855189) rotate(0 14 20)"><text x="0" y="30" font-family="Virgil, Segoe UI Emoji" font-size="28px" fill="#000000" text-anchor="start" style="white-space: pre;" direction="ltr">有</text></g><g stroke-linecap="round"><g transform="translate(192.89025373213997 410.41385452794486) rotate(310.5263836566399 -47.741371409558724 40.57864083725235)"><path d="M-1.07 -0.27 C-17.14 13.33, -80.52 67.53, -96.05 81.37 M0.57 -1.46 C-15.18 12.32, -78.03 68.9, -93.9 82.62" stroke="#000000" stroke-width="1" fill="none"></path></g><g transform="translate(192.89025373213997 410.41385452794486) rotate(310.5263836566399 -47.741371409558724 40.57864083725235)"><path d="M-80.03 54.49 C-85.31 66.14, -87.79 72.72, -95.8 83.25 M-78.8 56.63 C-83.99 65.33, -88.55 73.11, -94.57 81.82" stroke="#000000" stroke-width="1" fill="none"></path></g><g transform="translate(192.89025373213997 410.41385452794486) rotate(310.5263836566399 -47.741371409558724 40.57864083725235)"><path d="M-66.43 69.86 C-76.21 76.27, -83.22 77.74, -95.8 83.25 M-65.21 72 C-74.93 75.66, -84.04 78.31, -94.57 81.82" stroke="#000000" stroke-width="1" fill="none"></path></g></g><g transform="translate(164.95242164248543 214.81188310895664) rotate(0 14 20)"><text x="0" y="30" font-family="Virgil, Segoe UI Emoji" font-size="28px" fill="#000000" text-anchor="start" style="white-space: pre;" direction="ltr">有</text></g><g transform="translate(366.95245651971777 557.097606113979) rotate(0 14 20)"><text x="0" y="30" font-family="Virgil, Segoe UI Emoji" font-size="28px" fill="#000000" text-anchor="start" style="white-space: pre;" direction="ltr">无</text></g><g transform="translate(547.4000040690103 589.5999603271484) rotate(0 84 20)"><text x="84" y="30" font-family="Virgil, Segoe UI Emoji" font-size="28px" fill="#000000" text-anchor="middle" style="white-space: pre;" direction="ltr">是否初始化？</text></g><g stroke-linecap="round"><g transform="translate(630.8507794339432 693.2690090482415) rotate(0 -2.013041474543229 102.43789888504966)"><path d="M-0.68 -0.98 C-1.56 33.18, -3.77 171.53, -4.29 205.86 M1.17 1.12 C0.05 34.9, -4.3 170.1, -5.19 204.32" stroke="#000000" stroke-width="1" fill="none"></path></g><g transform="translate(630.8507794339432 693.2690090482415) rotate(0 -2.013041474543229 102.43789888504966)"><path d="M-16.25 175.97 C-8.97 187.77, -6.83 195.72, -4.84 205.13 M-13.75 175.15 C-11.47 183.07, -10.5 191.13, -4.26 204.26" stroke="#000000" stroke-width="1" fill="none"></path></g><g transform="translate(630.8507794339432 693.2690090482415) rotate(0 -2.013041474543229 102.43789888504966)"><path d="M4.26 176.58 C3.71 188.03, -1.97 195.75, -4.84 205.13 M6.76 175.76 C3.83 183.54, -0.42 191.45, -4.26 204.26" stroke="#000000" stroke-width="1" fill="none"></path></g></g><g stroke-linecap="round" transform="translate(509.7142159598218 904.5642726958527) rotate(0 122.66670735677087 35.46666208902991)"><path d="M0 0 C0 0, 0 0, 0 0 M0 0 C0 0, 0 0, 0 0 M-0.59 5.67 C0.56 4.51, 3.23 2.96, 5.19 0.89 M-0.66 6.65 C2.14 4.23, 3.89 1.59, 5.24 0.38 M-1.27 13.05 C1.76 9.97, 5.37 5.83, 9.94 -0.61 M-0.27 11.54 C3.55 7.62, 7.23 3.61, 10.4 -0.49 M0.75 19.85 C7.04 12.18, 10.58 6.27, 16.95 -1.43 M0.32 17.57 C3.94 13.07, 9.45 7.95, 15.66 0.3 M-0.47 25.07 C6.92 20.18, 10.15 11.76, 22.73 -1.61 M-0.04 23.23 C6.35 17.37, 12.33 10.34, 20.87 0.9 M0.91 29.85 C8.2 22.35, 16.58 12.8, 27.97 0.03 M0.03 30.29 C6.58 23.43, 11.28 18.61, 25.91 -0.63 M-0.64 37.83 C10.25 24.98, 20.35 11.06, 32.87 -0.6 M-0.04 36.94 C9.14 26.38, 16.87 16.66, 32.6 0.61 M0.56 43.8 C15.24 26.17, 29.13 10.15, 38.65 1.11 M-0.75 42.43 C9.38 31.08, 18.73 21.54, 36.44 -0.16 M-1.62 47.98 C13.15 33.42, 26.65 16.47, 41.79 -1.48 M0.43 48.8 C12.78 34.39, 25.1 20.99, 41.91 -1.01 M0.44 52.83 C19.56 31.94, 36.87 10.77, 47.65 -0.22 M-0.19 54.04 C17.08 35.85, 33.9 17.07, 48.23 0.22 M1.73 61.11 C18.35 41.47, 35.31 20.64, 52.71 -0.09 M-0.85 61.62 C21.19 38.71, 40.59 16.27, 52.65 0.33 M-1.77 68.71 C18.34 46.82, 36.73 22.59, 58.22 -1.13 M0.35 67.7 C16.11 48.8, 31.72 29.14, 58.24 0.3 M0.46 74.18 C19.27 53.13, 34.8 32.93, 64.43 1.62 M1.16 72.04 C15.1 56.44, 28.17 39.97, 63.13 -0.3 M7.75 71.32 C30.02 46.52, 54.79 16.58, 68.23 0.16 M6.49 71.01 C21.09 55.3, 35.96 37.08, 68.37 0.19 M12.71 73.28 C26.83 56.29, 41.56 39.9, 73.37 1.62 M10.98 73.13 C28.07 54.09, 44.09 34.5, 75.11 -0.02 M17.24 73.28 C35.25 52.73, 51.21 33.61, 80.13 -1.68 M16.12 72.16 C33.12 52.35, 50.52 32.16, 78.47 -0.71 M22.24 71.26 C33.49 56.95, 48.77 42.68, 83.51 -0.21 M22.07 73.17 C42.7 46.83, 65.91 20.74, 84.79 -1.17 M25.87 69.86 C48.44 49.94, 65.05 26.72, 90.95 -1.09 M26.97 70.93 C41.58 56.71, 56.59 40.61, 89.37 -0.72 M33.2 72.57 C46.45 54.69, 61.07 39.32, 96.45 -0.11 M32.69 71.44 C50.12 51.06, 69.12 30.64, 95.83 -0.28 M38.38 71.71 C53.9 53.16, 73.62 32.12, 102.33 0.42 M38.13 72.34 C61.8 44.48, 85.62 15.35, 99.83 -0.85 M42.36 70.57 C58.11 51.08, 77.87 32.81, 105.37 -0.38 M43.02 72.46 C60.74 53.55, 77.04 33.87, 106.36 -1.08 M47.06 71.4 C73.37 46.32, 93.25 17.57, 110.5 0.23 M49.16 72.22 C65.88 53.44, 84.22 32.25, 111.55 0.2 M53.07 73.53 C75.96 45.12, 97.26 19.57, 116.38 1.32 M54.23 71.11 C69.53 54.52, 83.9 37.82, 115.27 1.24 M57.82 73.39 C75.82 52.13, 93.08 32.81, 120.29 0.65 M59.06 72.18 C75.13 53.26, 90.48 36.59, 122.21 -0.99 M65.28 70.61 C80.48 52.95, 100.07 33.73, 125.17 -1.02 M65.43 71.51 C89.43 43.42, 114.2 14.56, 125.92 0.02 M72.15 72.04 C86.69 53.14, 104.79 31.73, 131.11 -1.14 M69.3 70.65 C86.53 52.63, 103.53 33.22, 132.44 0.45 M73.53 73.88 C91.82 53.1, 106.99 35.5, 139.06 0.75 M74.66 72.12 C89.95 54.78, 104.24 38.34, 137.11 0.68 M81.14 69.65 C104.53 44.6, 127.21 17.78, 142.98 0.98 M80.78 71.85 C103.27 46.74, 127.13 20.34, 142.81 0.71 M84.97 72.33 C98.76 56.22, 112.63 42.3, 149.59 -0.06 M85.96 72.68 C104.62 49.87, 122.22 30.66, 148.78 0.68 M91.48 70.38 C110.52 50.71, 130.02 29.01, 154.5 0.02 M90.86 70.79 C112.97 47.7, 135.26 23.33, 152.85 0.26 M97.31 73.84 C121.79 42.56, 147.62 14.53, 157.92 1.77 M96.28 71.21 C111.59 55.55, 124.17 39.49, 158.3 -0.76 M103.44 70.34 C123.39 46.99, 148.33 22.32, 164.86 -2.11 M102.38 72.27 C121.64 49.07, 139.23 27.47, 164.05 -1.13 M108.88 71.21 C130.37 46.61, 151.74 20.8, 168.8 1.36 M106.54 71.07 C127.37 47.85, 147.26 23.32, 169.51 0.43 M112.23 72.27 C138.45 44.97, 161.86 18.29, 175.87 -0.57 M111.94 72.67 C130.87 49.21, 150.32 26.58, 174.83 0.61 M116.61 72.14 C135.74 50.54, 151.79 34.12, 180.56 1.74 M118.63 71.86 C132.43 54.25, 146.32 38.68, 179.69 0.07 M124.64 72.57 C145.97 47.85, 167.47 22.27, 185.9 -1.65 M123.58 71.87 C143.96 48.56, 164.99 24.35, 185.59 -1.16 M130 73.23 C147.79 51.75, 166.78 29.63, 191.14 -0.16 M128.36 72.54 C153.18 44.07, 177.34 14.91, 190.6 0.82 M133.06 71.8 C146.35 54.07, 161.55 41.33, 195.94 -0.7 M133.83 72.83 C150.47 51.73, 168.69 32, 195.67 -0.77 M137.15 69.99 C153.01 55, 167.25 38.3, 200.07 0.5 M138.51 72.3 C163.22 43.94, 186.78 15.59, 201.41 -0.9 M144.15 73.67 C158.85 55.82, 170.74 38.18, 207.56 -0.17 M143.31 71.56 C167.37 43.78, 191.21 17.64, 206.37 -1.27 M150.77 70.85 C160.04 56.87, 176.37 41.12, 210.46 -1.53 M149.82 71.69 C164.35 55.73, 179.53 37.24, 211.79 0.15 M156.16 71.81 C168.87 54.86, 183.32 37.4, 216.93 0.37 M155.1 72.83 C166.92 58.61, 180.08 43.65, 217.92 0.6 M162.15 71.13 C183.35 44.59, 207.01 13.52, 223.02 0.4 M159.97 71.52 C177.46 52.34, 193.68 34.24, 222.82 1 M164.91 71.75 C186.81 47.19, 208.19 19.42, 228.81 -1.7 M165.76 71.25 C180.66 55.3, 195 38.39, 228.55 -0.6 M171.17 71.05 C190.34 48.92, 209.14 24.38, 234.08 -1.15 M170.6 71.9 C187.91 53.14, 203.68 32.83, 234.06 -0.53 M177.85 72.92 C199.89 45.36, 218.34 21.82, 237.89 -1.38 M176.25 72.21 C196.13 47.54, 215.88 24.49, 238.73 0.72 M180.31 69.77 C202.71 47.44, 228.71 19.8, 245.53 -1.71 M182.31 71.24 C201.01 47.25, 222.01 23.91, 244.51 -0.82 M188 70.65 C201.84 52.92, 217.31 38.25, 248.14 2.5 M187.04 72.88 C211.47 44.12, 235.85 16.33, 247.59 2.71 M192.66 71.31 C206.82 56.43, 218.86 40.44, 247.64 9.39 M191.64 71.26 C213.12 47.7, 236.33 22.17, 246.43 8.87 M195.99 70.21 C209.32 56.96, 222.18 41.85, 249.55 15.83 M197.02 71.26 C215.7 51.08, 232.45 30.58, 246.65 13.63 M201.86 70.63 C215.31 54.19, 229.7 40.01, 247.45 21.89 M202.08 71.95 C216.15 56.27, 230.62 40, 246.65 20.2 M208.02 72.73 C221.6 59, 234.08 41.11, 246.46 25.03 M208.53 71.11 C216.59 62.4, 223.88 53.78, 247.11 26.65 M214.2 71.59 C220.76 61.81, 231.13 52.77, 246.92 32.22 M213.1 70.63 C226.97 56.23, 238.52 41.48, 247.83 32.43 M217.9 73.28 C229.73 61.34, 238.59 48.67, 247.93 38.73 M218.38 71.02 C227.11 62.03, 235.55 51.16, 247.29 38.57 M222.52 72.94 C230.94 63.28, 234.88 57.98, 246.32 44.45 M223.08 70.88 C228.72 66.46, 234.27 60.31, 246.78 44.37 M229.04 70.83 C236.02 64.33, 239.55 59.32, 245.6 52.22 M228.82 71.36 C235.42 65.8, 240.99 59.18, 247.41 51.2 M235.61 71.12 C235.56 69.27, 242 63.63, 249.52 56.59 M233.74 72.37 C238.32 67.73, 242.42 63.52, 248.77 55.62 M240.12 70.88 C241.14 68.12, 245.59 66.95, 247.65 62.29 M240.2 71.52 C241.22 70.27, 243.74 67.76, 247.02 62.87" stroke="#82c91e" stroke-width="0.5" fill="none"></path><path d="M0.11 1.52 C91.97 1.98, 180.71 1.94, 246 -0.76 M-0.56 0.48 C88.17 -2.44, 177.02 -0.97, 245.29 -0.74 M245.51 0.6 C247.11 17.47, 245.8 36.49, 243.61 70.55 M244.58 -0.89 C246.02 24.61, 246.08 47.39, 244.41 71.38 M244.01 72.04 C156.4 70.23, 69.04 72.26, -0.46 71.82 M246.08 70.62 C162.15 70.74, 78.47 70.26, -0.71 70.92 M0.27 71.31 C-0.22 50.44, 0.54 31.67, -0.21 -1.13 M-0.24 71.77 C0.35 55.45, 0.84 37.77, -0.64 0.42" stroke="#000000" stroke-width="1" fill="none"></path></g><g transform="translate(575.9474719819573 919.3641002715362) rotate(0 52.5 20)"><text x="52.5" y="30" font-family="Virgil, Segoe UI Emoji" font-size="28px" fill="#000000" text-anchor="middle" style="white-space: pre;" direction="ltr">.data段</text></g><g transform="translate(648.7618030366446 773.7926902286367) rotate(0 14 20)"><text x="0" y="30" font-family="Virgil, Segoe UI Emoji" font-size="28px" fill="#000000" text-anchor="start" style="white-space: pre;" direction="ltr">有</text></g><g stroke-linecap="round"><g transform="translate(773.6152392111585 603.5999603271484) rotate(0 137.2748364293808 145.32482971037535)"><path d="M-0.51 -0.38 C83.09 89.13, 168.07 179.09, 274.28 289.83 M-0.21 0.45 C68.75 73.96, 138.97 147.43, 275.06 291.03" stroke="#000000" stroke-width="1" fill="none"></path></g><g transform="translate(773.6152392111585 603.5999603271484) rotate(0 137.2748364293808 145.32482971037535)"><path d="M247.31 276.97 C255.73 281.82, 264.21 286.66, 273.28 289.87 M247.84 278.43 C254.43 281.72, 261.77 284.58, 274.65 292" stroke="#000000" stroke-width="1" fill="none"></path></g><g transform="translate(773.6152392111585 603.5999603271484) rotate(0 137.2748364293808 145.32482971037535)"><path d="M262.2 262.84 C265.91 272.1, 269.79 281.29, 273.28 289.87 M262.73 264.31 C265.46 271.21, 269.03 277.66, 274.65 292" stroke="#000000" stroke-width="1" fill="none"></path></g></g><g transform="translate(904.3081157715019 702.8896500623603) rotate(0 14 20)"><text x="0" y="30" font-family="Virgil, Segoe UI Emoji" font-size="28px" fill="#000000" text-anchor="start" style="white-space: pre;" direction="ltr">无</text></g><g stroke-linecap="round" transform="translate(926.5000174386164 903.3929011027024) rotate(0 122.66670735677087 35.46666208902991)"><path d="M0 0 C0 0, 0 0, 0 0 M0 0 C0 0, 0 0, 0 0 M0.07 6.75 C1.97 3.26, 3.55 1.64, 5.34 -0.28 M0.09 6.16 C2.03 3.75, 3.67 1.51, 4.73 0.57 M0.86 11.33 C2.74 9.45, 5.42 6.2, 11.49 -0.9 M-0.59 12.78 C1.5 9.94, 4.73 6.23, 10.87 -0.82 M-1.72 17.67 C3.34 13.13, 8.33 10.98, 13.94 1.07 M-0.16 18.09 C4.92 12.66, 10.49 7.66, 14.68 0.26 M2.11 25.48 C7.06 16.44, 14.09 8.36, 21.85 0.62 M0.13 24.32 C6.13 18.62, 10.82 11.63, 20.8 0.54 M-1.7 30.02 C9.58 22.21, 16.96 11.66, 25.09 0.15 M0.46 30.58 C8.56 21.82, 15.99 12.84, 25.49 -0.38 M0.12 38.24 C8.29 26.27, 16.12 21.31, 31.94 1.64 M-0.44 37.72 C10.42 23.7, 22.14 10.74, 31.22 -0.29 M-0.66 40.98 C10.02 29.42, 19.09 19.61, 34.96 0.5 M0.56 43.28 C14.58 27.52, 26.32 11.85, 36.53 0.94 M-0.86 47.28 C12.87 31.92, 25.45 17.66, 41.17 1.62 M0.04 49.2 C16.44 29.3, 33.81 10.85, 43.29 -0.23 M-0.29 53.13 C10.3 41.4, 24.26 29.61, 45.77 1.49 M0.69 55.03 C15.73 37.88, 29.1 20.93, 48.5 0.52 M-0.13 59.62 C15.11 43.2, 31.71 25.61, 54.31 0.17 M-0.93 61.38 C13.41 45.87, 26.63 30.09, 53.58 -0.23 M-1.34 65.67 C24.47 40.38, 45.07 15.98, 56.36 -0.57 M0.22 67.2 C23.22 40.73, 45.19 14.32, 58.09 -0.08 M0.92 73.66 C24.88 43.74, 47.9 15.97, 63.73 -1.23 M1.41 72.65 C24.7 44.62, 48.23 17.7, 63.11 -0.43 M7.55 69.93 C24.3 50.45, 44.65 27.49, 68.14 1.51 M5.47 72.15 C24.93 51.45, 42 30.93, 68.92 1.05 M12 72.92 C34.36 45.87, 53.79 20.67, 75.4 -1.17 M11.31 71.88 C25.13 56.6, 38.48 43.07, 74.36 -1.17 M16.2 69.94 C30.85 54.06, 46.1 34.34, 79.11 -0.16 M17.07 70.88 C35.15 49.82, 55.09 28.09, 78.56 1.07 M20.41 71.71 C37.14 54.52, 49.89 36.92, 86.87 -0.35 M21.93 73.13 C44.24 46.06, 66.61 20.24, 84.25 -0.01 M29.35 72.43 C45.74 48.75, 67.79 24.66, 89.9 1.43 M27.45 71.93 C50.51 44.38, 75.22 16.65, 89.54 -0.55 M33.9 71.9 C54.52 47.9, 78.08 23.72, 97.29 0.46 M33.26 71.44 C56.83 43.98, 82.82 14.82, 95.18 -0.69 M37.28 71.49 C56.36 52.56, 74.33 33.67, 101.68 -1.8 M38.43 71.1 C55.18 51.82, 73.15 30.52, 100.35 0.98 M44.77 72.29 C67.58 46.97, 87.76 21.22, 105.42 -1.63 M43.2 71.14 C62.43 50.02, 82.57 26.44, 105.96 -0.18 M49.86 71.11 C63.87 53.66, 81.72 33.41, 110.27 0.98 M48.28 71.01 C73.59 42.35, 97.54 14.1, 110.41 0.71 M51.95 70.59 C73.01 49.14, 96.77 25.02, 114.93 -0.84 M54.63 72.87 C69.43 56.28, 83.72 38.49, 116.24 1.13 M58.55 71.2 C82.7 46.33, 105.73 16.54, 120.04 1.49 M58.73 72.05 C83.73 45.09, 107.19 18.82, 121.13 -0.99 M62.95 73.39 C84.21 46.56, 109.9 19.66, 127.08 0.27 M64.38 72.55 C84.2 48.3, 105.88 25.62, 126.06 -0.64 M70.41 73.56 C84.3 52.64, 102.91 35.5, 133.97 -1.63 M69.96 71.44 C85.62 55.29, 102.12 37.52, 132.84 0.54 M75.87 70.21 C95.27 48.96, 111.26 30.16, 138.72 1.28 M74.22 72.4 C90.95 53.89, 108.11 35.67, 136.96 0.71 M82.09 71.91 C95.24 53.94, 109.29 39.16, 143.63 -0.83 M81.59 72.16 C99.15 48.12, 119.13 25.42, 143.84 -0.73 M85.41 71.46 C111.46 43.12, 134.91 16.55, 146.98 -1.05 M85.89 71.96 C107.59 47.81, 128.16 24.51, 147.6 -0.6 M89.85 69.87 C107.43 52.57, 125.99 33.4, 155.21 -1.67 M91.71 72.01 C107.69 51.59, 125.36 31.56, 153.37 -0.55 M96.86 70.48 C114.81 50.75, 134.09 28.6, 158.59 1.92 M96.08 71.03 C110.54 55.01, 123.97 38.78, 158.06 -0.53 M103.51 70.98 C116.34 55.51, 128.17 43.26, 163.44 -0.79 M101.86 70.59 C122.05 48.82, 140.78 28.17, 164.64 0.63 M108.12 73.49 C125.64 51.31, 143.33 29.67, 167.83 0.75 M107.42 72.72 C130.49 46.04, 154.98 17.73, 168.9 -0.27 M111.86 73.4 C129.53 54.17, 144.93 32.66, 173.7 0.08 M111.37 73.04 C134.72 48.33, 155.01 22.93, 175.79 0.65 M119.66 73.63 C143.09 42.24, 167.33 15.25, 178.62 1.91 M117.51 72.47 C131.96 56.09, 143.28 42.49, 180.14 0.82 M123.23 72.99 C134.91 58.22, 146.63 43.59, 183.93 0.1 M122.99 72.02 C136.32 56.07, 151.07 40.95, 184.95 0.68 M128.55 72.95 C142.27 51.95, 159.4 35.36, 190.45 1.78 M127.89 70.96 C150.13 47.25, 171.7 21.41, 190.22 0.15 M131.58 73.74 C153.36 46.76, 175.5 22.99, 194.67 1.35 M133.98 71.29 C154.78 45.71, 177.94 20.84, 197.17 0.14 M138.46 72.39 C159.41 47.11, 179.71 24.69, 200.41 0.62 M139.05 71.21 C159.73 47.26, 181.45 21.74, 201.06 0.95 M145.15 70.8 C159.96 51.98, 176.42 33.04, 207.06 -1.19 M143.67 71.61 C158.62 56.03, 172.48 39.75, 207.46 -0.22 M149.65 69.81 C160.66 56.53, 174.03 44.35, 213.19 0.63 M149.46 71.51 C162.53 57.09, 175.06 41.67, 211.03 -0.79 M155.72 73.24 C171.59 56.17, 182.6 37.94, 216.82 -1.64 M153.88 72.57 C174.79 50.68, 193.2 27.19, 217.79 0.64 M160.99 69.97 C183.58 47.59, 205.24 20.41, 223.06 -0.11 M160.51 72.48 C175.7 55.03, 190.51 37.54, 221.94 0.76 M164.71 74.01 C185.72 47.86, 210.2 22.68, 228.29 -1.2 M165.85 71.53 C185.84 47.28, 208.36 23.35, 228.08 -0.96 M171.91 70.53 C191.93 46.99, 218.16 18.53, 231.88 -1.6 M171.57 72 C183.43 56.78, 196.75 40.5, 234.06 0.2 M177.1 71.99 C194.09 51.59, 213.01 28.81, 239.72 -1.42 M175.3 72.67 C192.18 53.43, 208.7 34.07, 238.55 0.39 M180.46 72.09 C199.93 49.96, 216.83 31.99, 243.14 0.06 M180.94 72.27 C205.76 44.24, 229.08 14.45, 243.13 -0.06 M187.49 73.95 C203.69 49.21, 224.42 30.11, 246.62 0.31 M187.39 71.96 C203.54 52.84, 219.56 33.36, 248.03 2.59 M193.27 72.11 C210.72 51.1, 226.05 32.52, 248.66 6.99 M192.88 70.78 C207.77 53.81, 223.25 33.87, 248.1 7.47 M198.07 72.59 C215.64 50.35, 232.8 29.71, 246.58 15.31 M197.73 72.15 C216.34 50.18, 235.11 28.67, 247.75 13.7 M203.58 70.98 C212.5 58.12, 222.93 44.42, 249.04 20.37 M202.62 71.31 C217.96 53.9, 234.09 36.61, 246.53 21.26 M208.6 72.49 C223.89 55.06, 236.61 39.9, 247.47 27.44 M207.4 71.81 C216.17 62.09, 225.08 52.39, 248.66 26.65 M213.21 70 C224.6 59.27, 234.2 47.4, 247.79 32.05 M213.33 70.95 C221.96 62.03, 228.5 53.02, 247.81 31.35 M218.46 72.15 C230.68 60.28, 242.83 44.49, 245.93 38.77 M217.9 72.29 C224.98 62.69, 233.48 55.32, 246.76 38.04 M222.57 73.36 C230.58 64.13, 239.02 56.82, 246.77 45.55 M223.12 71.08 C231.04 62.68, 240.41 52.61, 247.45 45.32 M228.61 69.96 C232.64 67.74, 237.21 61.03, 249.16 50.03 M228.23 72.75 C236.5 64.29, 243.31 55.42, 248.02 51.45 M232.02 70.93 C240.78 65.09, 244.48 59.87, 247.4 58.32 M233.42 73.13 C238.01 68.05, 242.08 61.75, 247.45 55.55 M239.63 70.89 C241.26 69.33, 245.27 65.77, 248.4 62.98 M239.75 71.42 C242.22 68.05, 245.62 64.77, 247.43 62.96" stroke="#fa5252" stroke-width="0.5" fill="none"></path><path d="M0.76 -1.36 C67.48 -0.64, 135.93 0.15, 245.6 0.87 M-0.63 0.56 C61.55 1.38, 123.63 1.44, 244.86 -0.59 M245.06 1.01 C243.69 19.28, 244.11 39.76, 247.02 71.62 M246.04 -0.67 C244.86 14.14, 245.33 28.81, 244.35 70.06 M246.75 71.49 C165.76 69.56, 88.64 70.11, 0.94 69.3 M244.59 70.49 C181.89 70.99, 120.13 70.48, 0.18 71.45 M0.45 70.69 C2.52 45.65, 2.41 23.99, -0.51 1.28 M0.52 70.03 C0.35 55.13, -0.27 40.45, 0.28 0.38" stroke="#000000" stroke-width="1" fill="none"></path></g><g transform="translate(1008.9667736235122 912.0595143636071) rotate(0 40 20)"><text x="40" y="30" font-family="Virgil, Segoe UI Emoji" font-size="28px" fill="#000000" text-anchor="middle" style="white-space: pre;" direction="ltr">.bss段</text></g><g stroke-linecap="round"><g transform="translate(317.22242589196253 94.27915972878287) rotate(0 83.27113757206007 0.2610601673910651)"><path d="M-1.49 -0.13 C35.31 1.55, 67.61 0.17, 166.92 1.01 M-1 -0.49 C35.76 0.06, 73.5 -0.94, 168.04 0.6" stroke="#000000" stroke-width="1" fill="none"></path></g><g transform="translate(317.22242589196253 94.27915972878287) rotate(0 83.27113757206007 0.2610601673910651)"><path d="M138.24 10.41 C146.83 10.05, 150.92 6.51, 167.53 0.89 M138.73 10.05 C145.28 8.78, 152.78 5.46, 168.64 0.48" stroke="#000000" stroke-width="1" fill="none"></path></g><g transform="translate(317.22242589196253 94.27915972878287) rotate(0 83.27113757206007 0.2610601673910651)"><path d="M138.47 -10.11 C146.99 -6.31, 151.02 -5.69, 167.53 0.89 M138.97 -10.47 C145.4 -7.28, 152.84 -6.14, 168.64 0.48" stroke="#000000" stroke-width="1" fill="none"></path></g></g><g transform="translate(374.1368336844482 50.0325072052176) rotate(0 14 20)"><text x="0" y="30" font-family="Virgil, Segoe UI Emoji" font-size="28px" fill="#000000" text-anchor="start" style="white-space: pre;" direction="ltr">无</text></g><g stroke-linecap="round" transform="translate(514.6714041573669 57.39284442720009) rotate(0 122.66670735677087 35.46666208902991)"><path d="M0 0 C0 0, 0 0, 0 0 M0 0 C0 0, 0 0, 0 0 M-0.2 6.05 C0.69 4.87, 1.64 3.12, 5.14 -0.22 M-0.39 6.36 C1.4 4.57, 2.68 3.46, 4.83 0 M-1.17 10.86 C2.76 6.17, 6.75 2.27, 11.75 -0.49 M0.42 11.64 C3.65 7.83, 7.14 3.9, 10.42 -0.79 M-0.02 18.83 C7.55 11.08, 10.9 6.29, 16.64 1.92 M-0.87 17.64 C5.41 13.11, 9.83 5.42, 15.94 1.15 M-0.1 23.04 C3.93 18, 9.94 13.7, 21.03 1.08 M0.41 23.4 C6.77 17.04, 12.43 8.17, 20.54 0.71 M-1.39 31.93 C11.3 21.35, 18.15 7.82, 28.17 2.06 M-0.25 29.76 C9.67 19.71, 16.82 10.45, 26.03 0.89 M0.68 37.04 C13.63 21.25, 25.67 9.9, 32.4 0.66 M0.53 35.99 C8.66 26.02, 17.71 17.03, 32.17 -0.31 M1.93 41.03 C12.68 28.83, 21.64 18.96, 37.06 1.38 M0.15 42.4 C9.05 34.04, 16.63 25.03, 36.4 -0.62 M-1.65 47.98 C15.63 30.89, 29.79 11.69, 40.76 1.41 M-0.87 48.09 C10.94 38.09, 19.94 26.49, 43.15 -1.04 M-0.32 56.24 C12.26 42.45, 23.9 30.71, 46.98 0.81 M-0.32 54.11 C17.98 35.06, 34.69 14.87, 47.57 -0.37 M-0.94 60.45 C12.85 47.71, 23.82 34.24, 54.32 -1.53 M-0.5 61.01 C15.27 42.72, 30.63 25.13, 52.85 -0.72 M-1.44 68.36 C19.66 42.9, 38.18 22.87, 58.17 -1.77 M0.45 67.98 C12.8 52.26, 24.26 38.02, 57.98 -0.06 M-1.16 70.41 C15.02 53.37, 30.93 35.35, 64.89 0.91 M0.19 71.86 C25.04 43.99, 50.2 15.95, 63.05 0.24 M5.36 72.25 C30.89 46.08, 53.42 16.76, 69.51 -1.61 M5.59 72.09 C31.12 42.09, 55.57 13.53, 69.03 0.91 M12.86 70.93 C30 53.2, 44.61 32.75, 73.88 1.68 M11.22 72.25 C25.74 54.9, 40.78 36.77, 75.02 -0.8 M17.33 71.54 C28.89 58.54, 42.68 42.43, 80.42 -1.04 M16.5 71.16 C29.53 54.57, 44.35 40.29, 80.08 0.43 M21.84 73.89 C37.2 54.77, 52.77 37.98, 86.27 -0.34 M21.54 72.94 C40.47 49, 60.55 26.73, 84.47 0.35 M26.66 72.5 C44.67 52.03, 63.09 33.39, 88.97 0.51 M28.4 71.43 C50.58 46.79, 73.66 20.18, 89.45 0.7 M30.97 70.73 C52.78 48.85, 74.49 25.39, 96.67 1.62 M32.9 71.7 C48.79 52.68, 65.96 34.65, 96.56 -0.37 M39.06 72.78 C60.07 48.47, 78.34 24.31, 101.79 0.53 M37.89 72.45 C62.16 44.04, 86.77 17.08, 101.4 -0.8 M42 73.8 C58.04 54.43, 78.3 33.51, 107.24 0.26 M43.01 71.57 C66.1 47.8, 86.51 21.67, 106.9 -0.18 M47.84 71.93 C68.77 47.77, 89.12 24.87, 112.09 -0.59 M48.02 72.54 C63.95 56.02, 77.92 38.56, 111.14 -0.26 M55.28 70.38 C70.63 56.36, 82 37.65, 117.11 0.92 M54.52 71.92 C77.71 44.98, 99.19 20.53, 115.91 0.23 M59.89 73.44 C77.88 52.11, 92.52 31.2, 121.72 -1.58 M59.29 71.82 C80.56 47.02, 101.61 22.89, 121.84 -0.62 M63.77 72.62 C85.42 48.83, 110.55 20.96, 126.97 0.57 M64.03 71.38 C85.83 45.92, 106.63 22.08, 126.42 0.72 M69.73 70.66 C83.64 54.78, 99.45 37.83, 131.09 1.79 M70.67 71.2 C88.69 50.99, 106.88 29.3, 131.64 -0.49 M75 71.6 C89.26 56.54, 98.84 44.44, 137.13 -1.61 M75.12 72.89 C89.79 55.6, 104.94 36.86, 136.75 1.18 M81.42 72.87 C100.87 51.34, 118.34 25.78, 141.2 -1.39 M80.57 71.42 C105.86 44.65, 129.4 17.58, 142.59 0.8 M85.11 71.31 C100.72 52.51, 121.52 32.44, 148.13 -1.32 M85.28 72.7 C101.18 54.61, 116.56 36.75, 148.33 -0.43 M90.67 71.26 C107.43 55.87, 120.45 38.57, 155.66 0.89 M91.85 71.97 C107.32 53.05, 123.42 34.81, 153.74 0.24 M96.84 70.63 C116.88 46.07, 137.8 22.71, 158.14 1.65 M96.99 71.34 C113.59 54.06, 128.54 34.06, 158.03 -0.37 M102.74 72.93 C119.26 53.31, 130.99 38.08, 162.68 1.55 M102.83 72.18 C119.95 50.01, 138.72 28.61, 164.07 0.09 M105.5 73.36 C125.65 49.94, 143.71 28.98, 168.89 1.43 M106.67 72.65 C121.57 55.26, 136.29 37.66, 169.2 -0.08 M113.85 71.61 C131.08 46.53, 154.39 25.55, 177.04 0.42 M111.63 72.9 C135.9 46.03, 159.84 17.63, 175.51 -1.08 M117.02 70.18 C137.24 47.93, 157.88 25.49, 179.73 0.04 M117.69 72.76 C132.63 54.86, 147.71 36.97, 180.62 0.77 M123.78 70.71 C135.67 55.96, 150.44 41.44, 186.13 -1.77 M121.78 72.52 C143.98 49.38, 165.23 24.33, 185.95 0.59 M129.9 72.72 C145.16 53.16, 159.4 33.05, 189.6 1.42 M127.38 71.09 C151.22 45.45, 175.04 17.73, 191.53 -0.67 M133.92 73.78 C155.18 43.56, 179.87 16.61, 195.93 -1.39 M133.31 72.51 C152.8 48.01, 175.16 25.13, 196.24 -0.73 M137.25 71.48 C155.8 50.14, 176.49 29.24, 203.01 1.42 M138.02 71.38 C156.79 51.04, 175.67 29.27, 200.62 0.52 M143.93 71.55 C158.88 51.95, 177.78 33.74, 205.01 -1.88 M144.35 71.36 C157.67 54.55, 171.74 39.06, 207.16 0.42 M148.77 69.88 C166.84 53.89, 185.81 31.46, 212.09 1.76 M149.84 72.63 C163.72 54.25, 180.67 36.95, 211.04 0.08 M153.06 72.63 C168.54 58.1, 179.48 40.8, 218.55 0.19 M155.48 72.36 C171.12 51.95, 189.66 32.49, 218.47 -0.21 M160.76 70.24 C182.29 44.09, 206.62 19.15, 222.55 0.12 M160.02 72.17 C174.36 57.26, 187.77 41.54, 223.4 -0.47 M166.15 73.55 C186.95 47.91, 211.1 19.76, 226.29 1.18 M164.74 72.61 C188.46 45.12, 213.78 17.44, 227.87 0.43 M170.08 71.8 C183.55 57.28, 196.25 40.21, 231.7 0.04 M171.71 72.62 C186.65 54.46, 201.6 36.36, 232.74 -0.78 M175.62 72.75 C198.8 44.68, 223.91 18.55, 239.95 1.12 M176.62 72 C192.24 53.73, 207.61 35.34, 237.35 0.45 M180.24 72.7 C205.15 47.6, 226.85 18.55, 242.45 0.99 M181 70.88 C197.83 52.4, 215.21 32.5, 243.57 -0.76 M187.51 72.57 C201.95 56.31, 214.51 38.76, 248.47 0.17 M187.06 72.2 C203.78 51.31, 221.89 32.61, 247.53 2.5 M191.3 71.97 C204.87 55.61, 219.16 37.27, 246.06 8.66 M191.93 71.16 C206.71 55.32, 222.61 37.34, 247.63 8.84 M195.43 73.25 C212.99 51.47, 228.39 33.33, 246.86 15.21 M196.46 71.71 C208.84 60.27, 218.84 47.54, 247.43 13.32 M201.92 71.56 C214.58 61.36, 225.22 49.38, 246.58 19.77 M203.5 71.98 C220.1 52.9, 236.65 33.47, 247.27 20.19 M206.61 70.95 C221.53 57.9, 232.02 43.95, 248.45 27.67 M208.67 72.8 C219.12 59.63, 229.72 47.23, 247.76 26.6 M215.37 70.34 C223.67 60.27, 235.5 45.3, 246.95 33.76 M212.66 71.13 C224.01 60.16, 235.7 47.03, 246.64 33.04 M219.84 71.72 C225.54 61.9, 235.05 52.72, 247.31 37.18 M217.99 72.55 C228.26 62.64, 236.2 52.29, 246.33 39.62 M225.51 70.07 C227.94 66.41, 235.96 58.86, 248.46 45.7 M223.32 70.71 C233.66 61.84, 241.4 52.53, 248.05 44.7 M227.53 73.53 C234.23 65.03, 242.82 56.63, 248.07 50.02 M228.19 71.83 C235.49 64.19, 242.47 55.97, 246.86 50.7 M234.13 74.16 C237.48 66.71, 239.68 64.91, 247.98 56.59 M234.68 72.87 C236.54 69.79, 240.37 65.58, 248.28 57.27 M238.46 72.09 C242.47 68.54, 244.81 66.83, 247.8 62.11 M239.53 72.12 C241.46 70.48, 243.45 68.57, 247.86 62.76" stroke="#be4bdb" stroke-width="0.5" fill="none"></path><path d="M1.44 -1.4 C52.54 -2, 107.7 -2.65, 245.49 1.58 M-0.36 0.58 C51.31 -1.76, 103.2 -1.43, 245.11 -0.17 M246.54 0.59 C247.21 18.35, 244.55 38.25, 245.99 69.14 M245.3 0.59 C245.12 26.24, 244.15 53.21, 244.35 71.33 M245.45 69.99 C184.1 71.44, 122.12 71.56, 1.02 71.18 M245.47 71.12 C168.61 70.9, 92.82 71.32, 0.6 71.39 M-1.83 72.25 C-0.81 57.77, -1.21 43.11, -0.43 -0.51 M-0.43 70.34 C-0.19 44.66, 0.49 16.78, 0.06 -0.01" stroke="#000000" stroke-width="1" fill="none"></path></g><g transform="translate(562.5380626860126 53.259500412714374) rotate(0 70 40)"><text x="70" y="30" font-family="Virgil, Segoe UI Emoji" font-size="28px" fill="#000000" text-anchor="middle" style="white-space: pre;" direction="ltr">自动存储类</text><text x="70" y="70" font-family="Virgil, Segoe UI Emoji" font-size="28px" fill="#000000" text-anchor="middle" style="white-space: pre;" direction="ltr">（堆栈段）</text></g></svg>